# xmcd
#
# Track frame offsets:
#	150
#	25344
#	50660
#	70702
#	88241
#	102480
#	114464
#	135256
#	166079
#	172122
#	196785
#	212518
#	245363
#	275696
#
# Disc length: 4493 seconds
#
# Revision: 0
# Processed by: cddbd v1.5PL3 Copyright (c) Steve Scherf et al.
# Submitted via: MusicManager 7.0.3.0 
#
DISCID=c2118b0e
DTITLE=Peter Frampton - Frampton Comes Alive
DYEAR=1900
DGENRE=rock
TTITLE0=Introduction
TTITLE1=Something's Hapenning
TTITLE2=Doobie Wah
TTITLE3=Show Me The Way
TTITLE4=It's A Plain Shame
TTITLE5=All I Want To Be (Is By Your Side)
TTITLE6=Wind Of Change
TTITLE7=Baby, I Love Your Way 
TTITLE8=I Wanna Go To The Sun
TTITLE9=Penny For Your Thoughts (I'll Give You) Money
TTITLE10=Shine On
TTITLE11=Jumping Jack Flash
TTITLE12=Lines On My Face
TTITLE13=Do You Feel Like We Do
EXTD=
EXTT0=
EXTT1=
EXTT2=
EXTT3=
EXTT4=
EXTT5=
EXTT6=
EXTT7=
EXTT8=
EXTT9=
EXTT10=
EXTT11=
EXTT12=
EXTT13=
PLAYORDER=
